REM DIRINDEX 1\2,1\4,1\3\5,1\3\6,1\3\7
REM DIRNAME cjc082,folder01,folder02,folder03,folder04,folder05,folder06
TITLE ""
FILE "CD1Track13.mp3" MP3
  TRACK 01 AUDIO
    TITLE "0:"
    INDEX 01 00:00:00
  TRACK 02 AUDIO
    TITLE "5:cjc082_0186"
    INDEX 01 00:00:29
  TRACK 03 AUDIO
    TITLE "0:"
    INDEX 01 00:01:42
  TRACK 04 AUDIO
    TITLE "6:cjc082_0187"
    INDEX 01 00:02:12
  TRACK 05 AUDIO
    TITLE "0:"
    INDEX 01 00:03:74
  TRACK 06 AUDIO
    TITLE "5:cjc082_0188"
    INDEX 01 00:04:42
  TRACK 07 AUDIO
    TITLE "0:"
    INDEX 01 00:06:02
  TRACK 08 AUDIO
    TITLE "6:cjc082_0189"
    INDEX 01 00:06:53
  TRACK 09 AUDIO
    TITLE "0:"
    INDEX 01 00:08:48
  TRACK 10 AUDIO
    TITLE "5:cjc082_0190"
    INDEX 01 00:09:22
  TRACK 11 AUDIO
    TITLE "0:"
    INDEX 01 00:10:39
  TRACK 12 AUDIO
    TITLE "6:cjc082_0191"
    INDEX 01 00:11:15
  TRACK 13 AUDIO
    TITLE "0:"
    INDEX 01 00:13:45
  TRACK 14 AUDIO
    TITLE "5:cjc082_0192"
    INDEX 01 00:14:15
  TRACK 15 AUDIO
    TITLE "0:"
    INDEX 01 00:15:52
  TRACK 16 AUDIO
    TITLE "6:cjc082_0193"
    INDEX 01 00:16:22
  TRACK 17 AUDIO
    TITLE "0:"
    INDEX 01 00:18:29
  TRACK 18 AUDIO
    TITLE "5:cjc082_0194"
    INDEX 01 00:18:74
  TRACK 19 AUDIO
    TITLE "0:"
    INDEX 01 00:20:18
  TRACK 20 AUDIO
    TITLE "6:cjc082_0195"
    INDEX 01 00:20:69
  TRACK 21 AUDIO
    TITLE "0:"
    INDEX 01 00:22:07
  TRACK 22 AUDIO
    TITLE "5:cjc082_0196"
    INDEX 01 00:22:52
  TRACK 23 AUDIO
    TITLE "0:"
    INDEX 01 00:24:08
  TRACK 24 AUDIO
    TITLE "6:cjc082_0197"
    INDEX 01 00:24:57
  TRACK 25 AUDIO
    TITLE "0:"
    INDEX 01 00:25:70
  TRACK 26 AUDIO
    TITLE "5:cjc082_0198"
    INDEX 01 00:26:48
  TRACK 27 AUDIO
    TITLE "0:"
    INDEX 01 00:28:13
  TRACK 28 AUDIO
    TITLE "6:cjc082_0199"
    INDEX 01 00:28:60
  TRACK 29 AUDIO
    TITLE "0:"
    INDEX 01 00:30:48
  TRACK 30 AUDIO
    TITLE "5:cjc082_0200"
    INDEX 01 00:31:22
  TRACK 31 AUDIO
    TITLE "0:"
    INDEX 01 00:32:74
  TRACK 32 AUDIO
    TITLE "6:cjc082_0201"
    INDEX 01 00:33:48
  TRACK 33 AUDIO
    TITLE "0:"
    INDEX 01 00:34:65
  TRACK 34 AUDIO
    TITLE "5:cjc082_0202"
    INDEX 01 00:35:41
  TRACK 35 AUDIO
    TITLE "0:"
    INDEX 01 00:36:48
  TRACK 36 AUDIO
    TITLE "6:cjc082_0203"
    INDEX 01 00:37:14
  TRACK 37 AUDIO
    TITLE "0:"
    INDEX 01 00:38:37
  TRACK 38 AUDIO
    TITLE "5:cjc082_0204"
    INDEX 01 00:39:07
  TRACK 39 AUDIO
    TITLE "0:"
    INDEX 01 00:40:24
  TRACK 40 AUDIO
    TITLE "6:cjc082_0205"
    INDEX 01 00:40:72
  TRACK 41 AUDIO
    TITLE "0:"
    INDEX 01 00:42:04
  TRACK 42 AUDIO
    TITLE "5:cjc082_0206"
    INDEX 01 00:42:55
  TRACK 43 AUDIO
    TITLE "0:"
    INDEX 01 00:44:20
  TRACK 44 AUDIO
    TITLE "6:cjc082_0207"
    INDEX 01 00:44:63
  TRACK 45 AUDIO
    TITLE "0:"
    INDEX 01 00:46:68
  TRACK 46 AUDIO
    TITLE "5:cjc082_0208"
    INDEX 01 00:47:38
  TRACK 47 AUDIO
    TITLE "0:"
    INDEX 01 00:48:49
  TRACK 48 AUDIO
    TITLE "6:cjc082_0209"
    INDEX 01 00:49:23
  TRACK 49 AUDIO
    TITLE "0:"
    INDEX 01 00:51:22
  TRACK 50 AUDIO
    TITLE "5:cjc082_0210"
    INDEX 01 00:51:62
  TRACK 51 AUDIO
    TITLE "0:"
    INDEX 01 00:53:02
  TRACK 52 AUDIO
    TITLE "6:cjc082_0211"
    INDEX 01 00:53:47
  TRACK 53 AUDIO
    TITLE "0:"
    INDEX 01 00:55:26
  TRACK 54 AUDIO
    TITLE "5:cjc082_0212"
    INDEX 01 00:55:73
  TRACK 55 AUDIO
    TITLE "0:"
    INDEX 01 00:58:05
  TRACK 56 AUDIO
    TITLE "6:cjc082_0213"
    INDEX 01 00:58:52
  TRACK 57 AUDIO
    TITLE "0:"
    INDEX 01 01:00:59
  TRACK 58 AUDIO
    TITLE "7:cjc082_0214"
    INDEX 01 01:02:24
  TRACK 59 AUDIO
    TITLE "0:"
    INDEX 01 01:13:14
